<svg width="10" height="14" viewBox="0 0 10 14" fill="none" xmlns="http://www.w3.org/2000/svg">
<path d="M8.5 5.46875V3.9375C8.5 3.00924 8.13125 2.119 7.47487 1.46263C6.8185 0.806249 5.92826 0.4375 5 0.4375C4.07174 0.4375 3.1815 0.806249 2.52513 1.46263C1.86875 2.119 1.5 3.00924 1.5 3.9375V5.46875H0.40625V8.96875C0.40625 11.5017 2.46698 13.5625 5 13.5625C7.53302 13.5625 9.59375 11.5017 9.59375 8.96875V5.46875H8.5ZM2.375 3.9375C2.375 3.24131 2.65156 2.57363 3.14384 2.08134C3.63613 1.58906 4.30381 1.3125 5 1.3125C5.69619 1.3125 6.36387 1.58906 6.85616 2.08134C7.34844 2.57363 7.625 3.24131 7.625 3.9375V5.46875H2.375V3.9375ZM8.71875 8.96875C8.71875 11.0193 7.05051 12.6875 5 12.6875C2.94949 12.6875 1.28125 11.0193 1.28125 8.96875V6.34375H8.71875V8.96875Z" fill="#747474"/>
</svg>
