<svg width="105" height="54" viewBox="0 0 98 51" fill="none" xmlns="http://www.w3.org/2000/svg">
<path d="M25.1314 0C16.686 0 12.801 1.00716 6.71851 6.54627C-0.746387 13.3443 -0.248816 21.6531 0.248778 25.6815C0.746372 29.71 1.24409 41.7954 25.1314 48.8453C44.2413 54.4851 53 47.8381 53 42.8025C53 15.6103 37.324 0 25.1314 0Z" fill="url(#paint0_linear_152_579)"/>
<path d="M20.5413 32V18.0735H24.2224V20.5306H24.3856C24.6758 19.7146 25.1593 19.0708 25.8363 18.5994C26.5133 18.1279 27.3233 17.8922 28.2662 17.8922C29.2212 17.8922 30.0342 18.1309 30.7051 18.6084C31.3761 19.0799 31.8234 19.7206 32.047 20.5306H32.1921C32.4762 19.7327 32.99 19.095 33.7334 18.6175C34.483 18.1339 35.3685 17.8922 36.39 17.8922C37.6896 17.8922 38.7443 18.3062 39.5543 19.1343C40.3703 19.9564 40.7783 21.1229 40.7783 22.6341V32H36.9249V23.3957C36.9249 22.622 36.7194 22.0417 36.3084 21.6549C35.8974 21.268 35.3836 21.0746 34.767 21.0746C34.0659 21.0746 33.5189 21.2982 33.126 21.7455C32.7331 22.1868 32.5366 22.7701 32.5366 23.4954V32H28.7921V23.3141C28.7921 22.631 28.5956 22.087 28.2027 21.6821C27.8159 21.2771 27.3051 21.0746 26.6705 21.0746C26.2413 21.0746 25.8544 21.1834 25.5099 21.401C25.1714 21.6125 24.9024 21.9118 24.703 22.2986C24.5035 22.6794 24.4038 23.1267 24.4038 23.6405V32H20.5413ZM50.1216 32.272C48.7132 32.272 47.4952 31.9728 46.4677 31.3744C45.4461 30.7699 44.6573 29.9298 44.1012 28.8538C43.5452 27.7719 43.2671 26.5176 43.2671 25.0912C43.2671 23.6526 43.5452 22.3953 44.1012 21.3194C44.6573 20.2374 45.4461 19.3972 46.4677 18.7988C47.4952 18.1944 48.7132 17.8922 50.1216 17.8922C51.5299 17.8922 52.7449 18.1944 53.7664 18.7988C54.7939 19.3972 55.5858 20.2374 56.1419 21.3194C56.698 22.3953 56.976 23.6526 56.976 25.0912C56.976 26.5176 56.698 27.7719 56.1419 28.8538C55.5858 29.9298 54.7939 30.7699 53.7664 31.3744C52.7449 31.9728 51.5299 32.272 50.1216 32.272ZM50.1397 29.28C50.7804 29.28 51.3153 29.0986 51.7445 28.736C52.1737 28.3673 52.497 27.8656 52.7146 27.2309C52.9383 26.5962 53.0501 25.8739 53.0501 25.064C53.0501 24.254 52.9383 23.5317 52.7146 22.897C52.497 22.2623 52.1737 21.7606 51.7445 21.3919C51.3153 21.0232 50.7804 20.8389 50.1397 20.8389C49.4929 20.8389 48.9489 21.0232 48.5077 21.3919C48.0725 21.7606 47.743 22.2623 47.5194 22.897C47.3018 23.5317 47.193 24.254 47.193 25.064C47.193 25.8739 47.3018 26.5962 47.5194 27.2309C47.743 27.8656 48.0725 28.3673 48.5077 28.736C48.9489 29.0986 49.4929 29.28 50.1397 29.28ZM63.3499 23.9487V32H59.4875V18.0735H63.1686V20.5306H63.3318C63.64 19.7206 64.1569 19.0799 64.8822 18.6084C65.6075 18.1309 66.487 17.8922 67.5206 17.8922C68.4877 17.8922 69.3309 18.1037 70.0502 18.5268C70.7695 18.95 71.3286 19.5544 71.7276 20.3402C72.1265 21.1199 72.326 22.0508 72.326 23.1327V32H68.4635V23.8218C68.4696 22.9695 68.252 22.3046 67.8107 21.8271C67.3695 21.3436 66.762 21.1018 65.9883 21.1018C65.4685 21.1018 65.0091 21.2136 64.6102 21.4373C64.2173 21.6609 63.909 21.9873 63.6854 22.4165C63.4678 22.8396 63.356 23.3503 63.3499 23.9487ZM75.2976 32V29.6971L82.1158 21.2559V21.1562H75.5333V18.0735H86.767V20.585L80.3659 28.8176V28.9173H87.0027V32H75.2976ZM89.9562 32V18.0735H93.8187V32H89.9562ZM91.8965 16.2783C91.3223 16.2783 90.8297 16.0879 90.4186 15.7071C90.0137 15.3202 89.8112 14.8578 89.8112 14.3199C89.8112 13.788 90.0137 13.3316 90.4186 12.9508C90.8297 12.564 91.3223 12.3705 91.8965 12.3705C92.4707 12.3705 92.9603 12.564 93.3653 12.9508C93.7763 13.3316 93.9819 13.788 93.9819 14.3199C93.9819 14.8578 93.7763 15.3202 93.3653 15.7071C92.9603 16.0879 92.4707 16.2783 91.8965 16.2783Z" fill="black"/>
<defs>
<linearGradient id="paint0_linear_152_579" x1="26.5" y1="0" x2="26.5" y2="51" gradientUnits="userSpaceOnUse">
<stop stop-color="#FFDA1D"/>
<stop offset="1" stop-color="#FBD307"/>
</linearGradient>
</defs>
</svg>
