<svg width="45" height="43" viewBox="0 0 33 40" fill="none" xmlns="http://www.w3.org/2000/svg">
<path d="M10 0.625H26.875C28.3668 0.625 29.7976 1.21763 30.8525 2.27252C31.9074 3.32742 32.5 4.75816 32.5 6.25V30.625C32.5 32.1168 31.9074 33.5476 30.8525 34.6025C29.7976 35.6574 28.3668 36.25 26.875 36.25H10C8.50816 36.25 7.07742 35.6574 6.02252 34.6025C4.96763 33.5476 4.375 32.1168 4.375 30.625V6.25C4.375 4.75816 4.96763 3.32742 6.02252 2.27252C7.07742 1.21763 8.50816 0.625 10 0.625ZM10 2.5C9.00544 2.5 8.05161 2.89509 7.34835 3.59835C6.64509 4.30161 6.25 5.25544 6.25 6.25V30.625C6.25 31.6196 6.64509 32.5734 7.34835 33.2766C8.05161 33.9799 9.00544 34.375 10 34.375H26.875C27.8696 34.375 28.8234 33.9799 29.5266 33.2766C30.2299 32.5734 30.625 31.6196 30.625 30.625V6.25C30.625 5.25544 30.2299 4.30161 29.5266 3.59835C28.8234 2.89509 27.8696 2.5 26.875 2.5H21.25V15.0625L15.625 11.125L10 15.0625V2.5ZM19.375 2.5H11.875V11.4625L15.625 8.83563L19.375 11.4606V2.5ZM10 40C7.5136 40 5.12903 39.0123 3.37087 37.2541C1.61272 35.496 0.625 33.1114 0.625 30.625V8.125H2.5V30.625C2.5 32.6141 3.29018 34.5218 4.6967 35.9283C6.10322 37.3348 8.01088 38.125 10 38.125H25V40H10Z" fill="black"/>
</svg>
