<svg width="38" height="40" viewBox="0 0 37 29" fill="none" xmlns="http://www.w3.org/2000/svg">
<path d="M6.375 0.375H30.75C32.2418 0.375 33.6726 0.967632 34.7275 2.02252C35.7824 3.07742 36.375 4.50816 36.375 6V22.875C36.375 24.3668 35.7824 25.7976 34.7275 26.8525C33.6726 27.9074 32.2418 28.5 30.75 28.5H6.375C4.88316 28.5 3.45242 27.9074 2.39752 26.8525C1.34263 25.7976 0.75 24.3668 0.75 22.875V6C0.75 4.50816 1.34263 3.07742 2.39752 2.02252C3.45242 0.967632 4.88316 0.375 6.375 0.375ZM6.375 2.25C5.38044 2.25 4.42661 2.64509 3.72335 3.34835C3.02009 4.05161 2.625 5.00544 2.625 6V7.875H34.5V6C34.5 5.00544 34.1049 4.05161 33.4016 3.34835C32.6984 2.64509 31.7446 2.25 30.75 2.25H6.375ZM2.625 22.875C2.625 23.8696 3.02009 24.8234 3.72335 25.5266C4.42661 26.2299 5.38044 26.625 6.375 26.625H30.75C31.7446 26.625 32.6984 26.2299 33.4016 25.5266C34.1049 24.8234 34.5 23.8696 34.5 22.875V13.5H2.625V22.875ZM6.375 21H13.875V22.875H6.375V21ZM17.625 21H23.25V22.875H17.625V21ZM2.625 9.75V11.625H34.5V9.75H2.625Z" fill="black"/>
</svg>
